<mxfile host="Electron" agent="Mozilla/5.0 (Windows NT 10.0; Win64; x64) AppleWebKit/537.36 (KHTML, like Gecko) draw.io/26.2.15 Chrome/134.0.6998.205 Electron/35.2.1 Safari/537.36" version="26.2.15">
  <diagram name="Page-1" id="6KnQDM-ui139lijppUMm">
    <mxGraphModel dx="1046" dy="612" grid="1" gridSize="5" guides="1" tooltips="1" connect="1" arrows="1" fold="1" page="1" pageScale="1" pageWidth="2336" pageHeight="1654" math="0" shadow="0">
      <root>
        <mxCell id="0" />
        <mxCell id="1" parent="0" />
        <mxCell id="9tiRhB4PVM25RhnuYTAQ-8" value="" style="rounded=1;html=1;resizeHeight=0;arcSize=40;absoluteArcSize=1;labelBackgroundColor=none;labelBorderColor=none;textShadow=0;whiteSpace=wrap;" parent="1" vertex="1">
          <mxGeometry x="750" y="600" width="240" height="345" as="geometry" />
        </mxCell>
        <mxCell id="9tiRhB4PVM25RhnuYTAQ-11" value="User" style="sketch=0;outlineConnect=0;fontColor=#232F3E;gradientColor=none;strokeColor=#232F3E;fillColor=#ffffff;dashed=0;verticalLabelPosition=bottom;verticalAlign=top;align=center;html=1;fontSize=12;fontStyle=0;aspect=fixed;shape=mxgraph.aws4.resourceIcon;resIcon=mxgraph.aws4.user;labelBackgroundColor=none;labelBorderColor=none;textShadow=0;whiteSpace=wrap;" parent="1" vertex="1">
          <mxGeometry x="570" y="775" width="100" height="100" as="geometry" />
        </mxCell>
        <mxCell id="9tiRhB4PVM25RhnuYTAQ-12" value="&lt;p&gt;&lt;font&gt;Browser&lt;/font&gt;&lt;/p&gt;" style="text;html=1;align=center;verticalAlign=middle;rounded=0;fontFamily=Tahoma;labelBackgroundColor=none;labelBorderColor=none;textShadow=0;whiteSpace=wrap;fontStyle=1;fontSize=14;" parent="1" vertex="1">
          <mxGeometry x="840" y="595" width="60" height="40" as="geometry" />
        </mxCell>
        <mxCell id="9tiRhB4PVM25RhnuYTAQ-13" value="" style="rounded=1;html=1;arcSize=25;absoluteArcSize=1;fillColor=#dae8fc;strokeColor=#6c8ebf;fontFamily=Tahoma;labelBackgroundColor=none;labelBorderColor=none;textShadow=0;whiteSpace=wrap;" parent="1" vertex="1">
          <mxGeometry x="770" y="675" width="200" height="260" as="geometry" />
        </mxCell>
        <mxCell id="9tiRhB4PVM25RhnuYTAQ-14" value="Frontend Astro, React App" style="text;html=1;align=center;verticalAlign=middle;rounded=0;fontFamily=Tahoma;fontSize=15;labelBorderColor=none;labelBackgroundColor=none;textShadow=0;whiteSpace=wrap;" parent="1" vertex="1">
          <mxGeometry x="804.38" y="685" width="121.25" height="25" as="geometry" />
        </mxCell>
        <mxCell id="9tiRhB4PVM25RhnuYTAQ-20" value="" style="shape=image;imageAspect=0;aspect=fixed;verticalLabelPosition=bottom;verticalAlign=top;image=data:image/png,iVBORw0KGgoAAAANSUhEUgAAAMwAAADACAMAAAB/Pny7AAAAaVBMVEX///8IfqQAfKMAeaEAdp8AdJ4AcZwAbpr6/P0AbJny9/ns9Pfm7/Pf7PGpytj2+vvG3OW91uF/r8XQ4emYvc+Oucxspb6xz9wlgaZQlbSixtaGtMkAZ5W40N1BkbE7i61im7danrk8hamuPJl5AAAVIElEQVR4nO1d6Zajuq4ubEMIU5gxUGHI+z/kgSTIAzaYFLl7rbtaP3p31y6MZcuSLH0SPz//6B/9o3/0j35+grjKi7ZooiS8/WmgMI6a/DXQSVM7SEnZPyi1LGRZlD4efVr5nwxzi4v6MQ+EEJoH6sfIO3uqO+SnmMxvn6YwczP9ByNM+iI4OE41YoIxeg5hWc+BECFj9pVJqylML/br3QIhbP/2jecajnLL6t8LXg9jIfJbZ6aj/JG8iNqKKbwIO5c2NJATN2zoleiHsduPhPYohamj2BWObFLGOzNxs5w6qk1hu2PX8fc3J67127JMhKAy2VJvMyvbCzIR6aNvcxNviBi/OzSNdUOETa86cSvCVv5dXpJeFA6EnjpNtTt9q1Rtt6gmSgFbD4TQV7nJBF6Q7UyCT6dD71zs1QQRrivFCIOFV5MmzsUh00D2xRH2DNmKEc4ib+CmjB2Uxr43kx/e2/4qq9nJ9JTS5rg5lVnBztUqoyx4DhQkLb1wv4HIUcNlTgU3XUKlVXOrzibSTAlN+F8JevHATabW6RtJ82U1tzuo+xYvdwpvwbhQ/IKX90hceXRNYW3d6lfcO2w9UtXKJz0zQLj9Di9+CeuKHxpddasGKm6P0719k6C8SrtWNxr9HQzADeq/43reYdFxv+E83UuRHWzfJ4/AjTvB3mNr0LEykTuwdUu/YW38kQAvWhvynElVYlHptcGtofyPMK6jTSfBrw1f9iEly2Ihumeag6jjTzrCQyrwYtN8T3gyOJ+4PX9rbmxjyl1H0g1bIu4EJ3joWhr4xNGyHLg7/0IQOHAkTfb9FlPHUhLBd5PbF1MC5HzLmcNKpYZPlL8qXi61oR28L2qElKffBt43QQs9jHc9xivPBZPc9ATA1iDrbDkLFiOBB/OH/FHiBXUHVFOzbI1zPzzdnZGXE4CPSPCtFWw+MhWxJ2Xd+2GSnhziWAZG+EhQyWstwQsej5hzt3y/E9OT3c3lZojrAw/5pXTLx/UR8c+XG871XJcmXHSZ05g/5Mm8zHecA9zE/ZuZS7L/yweoWqb1e2CRxpUym02g+QB+/ZYzW+Wif07pcpB/zZ+plbdj3JtbjeUuiOtTPZp6sTLU+JGR8TLdi9keYctYhaTLW/GpzPSgJU2f4M4Lwm2FGGsEm44RLbrQPtMHuD0W+2V4/t2U3WnQfCtNOLeZ9IZ7E9P3E6eqs3AZ1THTK7eCnX1EnseXD1Lh0Wyl4bXXM+80GYxqpFndxuL25R384vYG4dSIGw8EIvp87itKgBmjSVTcvAkE8mJ2bhBqjTwUYObMaOAdxMxE2uMHtweclxyzCxuijYmCWqzmqYamWqTGNmAmoEyRkYKfc8IiYpianL5uudIYK1EDAh1p4mbyMibd3xMWGsCWgYZamLHLDyeuogaSdPvCUXP7Usq/XjkcN/vHpobL5ocTVxEwY+0yk3LRyHK9jw1nbrrdwRYv4ivMWLs7EzEDQwbF0vPXtcvuSfjKzsCZITtnJmOKjPTKK5VfMnYve7fWr5wZ5iRtMxPWnPLV2NeAy4ugHcv+FW1WmdkZv+RclibM4jhJ7lUVNRNFUVVV9yTOQrDAcwxu26P4ip2JjTwAN+dvMEPd9X1P6RPFMU9q/mvfd/XAmJl0xKZLcdS/NaJsz311w6RJR8rfLGfghZTxfP5bCqbVZVFlGiUNvtnu4TpC4L5e1kIeJMU4o2g0mdodQm/ITN1W63UKDjrrZqRZIi/Oa/tikyeI5gNOFoaeCUHbcfqyEjTgrkB8Rg/pJN68oCrp5bINszjMFXGupM4z/42/AVVxOTVw1nGm+BZk97S/OnI29iSGsH0lY5PNAByw1fapIc1x8QC6MMlr7BhBLD6nSeb6tMpS+MGpAQ0INVm1vcYv6OmFRVvoyMmaRK5fpAzve3FHqAH3cZ8ThAkh9kSO49gEz8pqtjfz/5hP+fx/bEIUAULVSjxp7X3/iTIj+M/zxdjqxjQtmqhKMgXFk0vQtGnZUaSHm0l0qs38yUpT0XLKMAh8z7u52sV0f9yb5/tBkGsShSvC3XkBjaTeUFyT8uHmhNWusoZ4aIC9pR4Rovnf8Lkv8nKqBFJaT8+E0LEJwx5mgY9l7Nj0aRQ0ZU+e6FMlT46d/tFyun6OVZi92cGifd0ms5voprA15hnLF2Wg4skwT9WLi7qnsvv2fqc9sfP59rhhgxSsIIJpPbTxYsgS4AWPBy2124JigTiOH+dlTTFZb9DMTvYhOzP8ULXh/SA4hT7EXT9AhgQQ/kB87Cmo2rJXiZuNik9Awp4GfohqCRrLhAx9cIVKKBM0YVw/LlVnB9n9LlRl/ZJBYx7RIP5izISs/iDxcCtAo8kHrlHboRlEdEjWvJTKenL5JxKVr8uC+/ijUH3IBA0LS+5B0EqSN4TpcEBpJr2sTsjvEltAYlyVIR0/DQdFTNCETDYER1BvOyt2TCPpbiofFvtSev5lGYkHGoYP5kB9xsvPD/Murvw6JUvg0b67OZGcBWR3RqIW1sI6TKaRFtOD3mIZMb8D3EQ+zgdxC2JzP14wWojOI0c9FlcYm0h1IupjjLr8aVDc9i3CuGaizSCofwnTsZNus133lyODh9f7qloA4E3c7GZFIhGRSOpiUVGLbUQMA8wQGOhPiBAWOqSwUOAjQSbhFg1InNx2xsrN+SvkpNNbtgvhohQYCjhi8vEntzZk6h02OAYUJRvab4SqCmQrkcTAC3/OME75AxksIXm84MhZMJYYZlx1lDL8Z7JMZTkygluR5fwtCNn6GKJbcMZl2hYR4HqTh3cjZgj+GNcKwIwtAFB/CaFg0TFwk4FfcFuVaXhSzlsnuwyl85UAaPK18QHYS7vd0ZP6m9qb7qD4rRdSDiRvhaL0G/5Y2xqUVcTxgpw13DdjMI2n558bQVD9qOweE3Xjlk/lM4l9SQ6A9ej6NMYPTtTUtvrO8YKx4sVeC3I2exM+O7V6BzPu5pDGi4i9AYiO2V1g3hoXwHoq8KA/SvgPmfjSGE1op1qYeYImGc651kXT4/4qwhodpCvCBLMyOTXhDAldVOeg/PWUQ4DI5SKzWwdLg7DGAMYgZ5MohAD01dUfBel15Xiji85HjEEHXCIGPEaWRudzeJY1ijvikto6fCeH7AvZxiCN5x92F0tBNlVjYVmycw6KUHBrdZYk55Knqah/QpZaQXpcC6i7y53d3rF67bJeExbDmgdg3y2nCpZtx6NuLpzuRdL6MCHbymXFzNkEaBzqlecLcLxrQrbSKrktLE8H0yF6z2JypeHuIMQeAu66uKFAXQYCh2VRe8t8Fna9N+rcLYtYITg/Wwlh7pjb/NZwDuOmYw1bC7zgXsl1vsHLrKKUc2xXDxG9lM3cQ+0D7pg4eWxjtku8sgeSXqcGoMVU/j2BNAWYweqpHQxwBQ84bBo5cLiHJx2l15FRdWI4AdBsjVqYU3lrbNVv8Q+AcWJ5gg5U/N7trZJe5yg3JttLV2i25iblsOy9UsCsXx0u0MvI2nn4xxUlgSiLnNz98L4UJFuoFR90diNk6UoPVYvyMMiDpIL1UN/Dfb1ahq1R+6aesDW43k1lAtqCLJsIqUNn/+4b8OVKmrtRaJDx1FjOgt+ai0HdDFi+pdR2gB8YhHE5fxRpamkSpR8jkl0otXPA7SmiBnFYCA+h179vA9xTDJip2EzJoN7J3CBnqCkkczk9aJsgbOG2+w7beVAMYZI69MDBQ1j9+25qkKzEmrqgjAMSmtzFIdn6ZgZueY4R3KaAssBBPR93VTajYkbjNjETheX6eyWFEjPeMWZYPFtT2PMnZhhkTbd3hsyYiRm7xBH1rcxMzDTbmrFsD/lEzI4pgIgpAN3qNgYpcaK+NfELYZsUATaSAmAFROqriUiUV82aa5aRala+K+RDfJ+o5h+4FRkYzZA3mkSdkA0N8E6adRA8VIPaDBeM5hI/A6S/QTFEKdgQtVj746fuTCBmIDpzdwYgqYAeRGjzyYk8KswJj0pHc//QaGympAfVPrnwwLJs7F4FjuHuxjbSmqvvDNn23Wx2z5WK05dcB3sPzgxBCcTQ4yzbs3c5k8sV1e7crd3ZGqwucpbhRui6Mx24zXGXsxucWF38702Ka7N6a/rtrUHKjQmp/Hs7EGAAwgsCyZSIJkT3pmINAVHvZb6JjSODUi+n69E3e+hkNfMWuCPos5DeVp8XaG+E2Bpe1Qqt3OAGP5TvYNvOhnc2klhcHxxRqzJAzhaYB84bScudIGBYa30aTZ7YhQOAa3Bmid7DcgvGi+iTBhzQQh/SzCHwkTCLoAvP1rqGIL1akmGlLCfxFtOM9BX7LHSOekk67lxtm64Vi88HzsvdwHl5VUmaXasjQAxdMmNwQLdrXZqWSwPInWluKVcNNqqDokzKps3zfyG4qck1+bmzEjXslJrZcSmNO5/S0MhZy1wmhb/LCTki6jL3SEg2sVuUtstNOF7Ftk2XPtH4smzXn5fxnWQTf2VCqiJJvpQaqxwJSG690oDs/rwRq8tGe8kDYtvp9DeUBDAuz9sySwOqmiEI2gUrHcqIw4MjZ4225BK086FyI5ag3bhG3eJi7Pq+G9utdq4BeFTvi06kT9C6CeV50Zj5RkidjzJ+cJU6hwkYXaM2Ca58i9AE2tR5UPCgK1ubJyj4A0ukBne3ApLNb310B1uD/9jmhoXLlnZmHKhBsCG3hO+yN/Gix4JLcJNSgJsszgOETVhvKI3jaExgy6GiTgc3aTF/F91u49TwJRiI0JQpgmxRTCzxziG0jIrIdcRFMUCoYrBjTDmHudg3TRNIAKosXtSQ3QGuqVpDtDy2ougPcHCG80QUZscgWksu2WtqET+Gi72jGsvguf7Vn/cGYDbORiXgG24n7LaJ4Ty5YJcvv6/pRDwvxga9acNBdKomFTfvpreIlAbW+HnBHu8tcz8GE23NI+dUwtASXYWuRLkEh7TIdQyDyzI27734HL7y01PDEtNCu6EECs7ufupIF2qkV8kyxbUMXSdXqDsXvQd24/4UCpyz5RBMClcnLZe4IUQPlAe57cMQpM31MjCK2q+IXRe50z8TB9IWZ2JhqvNWNRSXVH27km8YGThVqPvA2LApW3IL4Fw9AYyG6qhE36pB3Ve5S0SIIERiEPqg4yVDuUkGMEh0hQ3NJwY6jDplj3mrThuujMXnrMRhQWP+HeaxIWGUDsrYm2Pln3Y7DCJ6URQDYYL6IY2WDYrNgDcq4rJ+UKMR3tuhpsrSRwe3MnD0yMv8yFoj4J4MYfroy2j2rLkyLU3aVUsVHLgXMCCs0u6hK9NySPHHr1z8eFV/VYeN5gI6jLsizjqmXQ9VBNyuTEdWWTFS/P56g4oVnJ/SFywbN0r9sX3hPIZjPhrnnyD7ulHBjvDW/e8gBcZFp2R8F51qq05d9+Y9a06D1iBd+FowTUTnQ4oNUvvvF9uI1mVa5E2VxOti4OQeNUWall2PbOMxzy0H5gyYQaH2pO7mMu25UNt5lmSjp8Ygr59NfxjWaWNmgk4t1AYxoyU63NUAGoMceY7YpO7ffz+5hH7pM4RrP45KOq3tMX6O0aRUrCFPwnb5gUG/qwO0GOq5gMn1w7kRyPVIk4NDjDhdm4SB+7W2E3I/O9fz47ab3msg+8aEyDRgnyaB97aN32kIAncwMZV1CyeRuzh/7NWCrFenlgsdG7GdTnisr6IhbTXR+cmqYpzbSny0Se8eOl0aKWqWv9NEZ7+bzS2856XU3khocITevY2w2Imelnml/Y7Qf9p6suHnObw6Tz1bT9FX06m+6+p64HhG2iKKF32l8ZRpSzAOmIwa79UTbG4K9uwGlsSTRxCGXsy1BNu5M7DyxhOZ+aRZm6Xxp0IeS7BzsL/SrA3yAwfa6GF1z33eZ91tK//V1pP7prjiUo2qaLrHVS9cd5shfKXB4VKdYdB6kvPrFe0a+RLdjXTEQotEfqePpoGTNDLPnsiNNHm8E6b/UVPQQ+1aORi3LVWDVSw+gk1wfl85MxXMzoAZj3GDiBDhqNim4e2qozd9RZstRhMZtTjmVJqAxeSaAiuKK1X0H7aeBEq4hs1sHglXKGqZtV6C7n3faT1p1hY84luAv613ZfE/M7qgaJz1PxJUgxl+CMLNuSbnL8xDxbef3/9Q0pO+cwU43kqfs41oTuVXnEdt1/9pK332kQNjHVkKKAoeL0F2MboLQVH/qR85YJ+f2K1KAxK44UJkRFnZqR4CorenBjRAag58GGRUhqQMkNdAX/owyGefbFnHoxA5gOXw62+YGa6lxZHPDbgr1Ck6lMFJ4GM6J3+BiiHlDjzkpSI3yKzAZ6ECKvZP/nIjywkficfdCiEZgg612bvBB6gOtYA0IGjorwHLqskXUyF7V36RALa+2wnmKPnQO2Ewfyjs5D5r/QG/BPASp0bNnsS6WhgnfiJ7/fVic9BguFThnP85Pe4TdIZOwK27WmtCjiGAh1mDPVTZBwTlAuhhsuveXdcnF18Lk8lxXa3O/jTgrFsAn7//SUg3K4XeYmIu/NLFu7LGEJaHwQUmFDMQ915T1jCXvqlbttInaNu91p4MgI4PtoA1IvZBXbnPi0RBI7YTRaTwb5H4YXHSF5vrHXJtU8//auuP+KljvUa7NWKzO8tGyW0WvFqES+K61bMTcMCvr3zq+MfnOu08NKbTz+UPsztLBbSfitoNo17XtDjjePnSR6i5PrGa5lRZSaXUOr4w1eUmV1HBYURHlWbM+aqEcx1m/i1cfAWTXFRJYUFtGfliiwLvrQqEkI1L8Uy41YNThIc+33mMboKr5ThjlPme5/lBFpXWrwxOm47Oytw3dJUsJPM3DeIZouJ5YVSSq6DTT7eXjEKxThM7Fweh6c+LjG59CtGgUBNhuWYHkRnLQZBtX8TyIUy+oskWWjf60iSaMelzpWV0q0FGGr/GWY+CFf0Az+XmYYLNmNuJahfVbzo1+vP/mpfJNA+qDu4i2bTddK2zptsfhPT3r1gYgcJ2G2eCHKvQfeqHDdL0O197WRcjfYVud9032a3ZJ0ZNYHAxdIOqu+g7B9m2+sR9gYLCUbKDnd/67pkuqBuWvxdlbI38HoSU/5EKy359W+EFJJuxFzapq6OX9Wq0nui6BY02D0R2PrH1DYqL4fH67helj8djLOLPwg5ZPvdzfY40/fHo01PxmObkZUmV51EVh39cSj+Mq2hGde5qjn/0j/7RP/r/Tv8Dt80gpnj9tbUAAAAASUVORK5CYII=;imageBackground=none;fillStyle=solid;fontFamily=Tahoma;labelBackgroundColor=none;labelBorderColor=none;textShadow=0;whiteSpace=wrap;html=1;" parent="1" vertex="1">
          <mxGeometry x="827.81" y="725" width="74.38" height="70" as="geometry" />
        </mxCell>
        <mxCell id="9tiRhB4PVM25RhnuYTAQ-27" style="edgeStyle=orthogonalEdgeStyle;rounded=1;orthogonalLoop=1;jettySize=auto;html=1;exitX=1;exitY=0.5;exitDx=0;exitDy=0;dashed=1;strokeWidth=2;curved=0;entryX=0.5;entryY=0;entryDx=0;entryDy=0;fontFamily=Tahoma;labelBackgroundColor=none;labelBorderColor=none;textShadow=0;flowAnimation=1;flowAnimationTimingFunction=linear;" parent="1" source="9tiRhB4PVM25RhnuYTAQ-23" target="9tiRhB4PVM25RhnuYTAQ-13" edge="1">
          <mxGeometry relative="1" as="geometry" />
        </mxCell>
        <mxCell id="9tiRhB4PVM25RhnuYTAQ-23" value="" style="rounded=1;html=1;fillColor=#bac8d3;strokeColor=#23445d;fontFamily=Tahoma;labelBackgroundColor=none;labelBorderColor=none;textShadow=0;whiteSpace=wrap;" parent="1" vertex="1">
          <mxGeometry x="615" y="600" width="105" height="80" as="geometry" />
        </mxCell>
        <mxCell id="9tiRhB4PVM25RhnuYTAQ-25" value="" style="shape=image;verticalLabelPosition=bottom;labelBackgroundColor=none;verticalAlign=top;aspect=fixed;imageAspect=0;image=data:image/jpeg,/9j/4AAQSkZJRgABAQAAAQABAAD//gA7Q1JFQVRPUjogZ2QtanBlZyB2MS4wICh1c2luZyBJSkcgSlBFRyB2NjIpLCBxdWFsaXR5ID0gODAK/9sAhAABAQEBAQEBAgIBAgICAgIDAwICAwMEAwMDAwMEBwQFBAQFBAcGBwYGBgcGCwgICAgLDAoKCgwPDg4PExITGRkhAQEBAQEBAQECAgECAgICAgMDAgIDAwQDAwMDAwQHBAUEBAUEBwYHBgYGBwYLCAgICAsMCgoKDA8ODg8TEhMZGSH/wgARCAKKA2IDASIAAhEBAxEB/8QAHgABAAICAgMBAAAAAAAAAAAAAAoLCAkEBwIFBgP/2gAIAQEAAAAAn8AAAAAAAAAAAAAAAAAAAAAAAAAAAAAAAAAAAAAAAAAAAAAAAAAAAAAAAAAAAAAAAAAAAAAAAAAAAAAAAAAAAAAAAAAAAAAAAAAAAAAAAAAAAAAAAAAAAAAAAAAAAAAAAAAAAAAAAAAAAAAAAAAAAAAAAAAAAAAAAAAAAAAAAAAAAAAAAAAAAAAAAAAAAAAAAAAAAAAAAAAAAAADw8/DzADw8w8PMPB5vDzAHh5gAPDzAAHh5gAAAAAAAAAAAAAAAAA8PMAAAAAAAAAAAAAAAAAAAAAAAAAAAAAAAAAAAAAAAAAAAAAAAAAAAAAAAAAAAAAAAAAAAAAAAA8PMAAAAAAAAAAAAAAAAAAAAAAAAAAAAAAAAAAAAAAAAAAAAAAAAAAAAAAAAAAAAAAAAAAAAAAAA8PMAAAB4eYAAAAAAAAAAAAAAAAAAAAAAAAAAAAAAAAAAAAAAAAAAAAAAAAAAAAAAAAAAAAAAAAAAAAAAAAAAAAAAAAAAAAAADj8gAAAAAAABx+QAAAAAAAA4/IAAAAAAAAAAAAAAAAAAAAAAAAAAAAAAAAAAAAAAAAAAAAAAAAAAAAAAAAAAAAAAAAAAAAAAAAAAAARUNmu3oAAAAAAAAAAAAAAAAAdQ0rexy3h/UAjmaqm7bekAaRtGDZ5JMAAAAAABrOjUJHe00AAAAAr/oBC1jlKgGlunL+f2B3UfaQHX1LPrg9ncKb0QAAAAAARW6qtaNS3gAAAAGAFLD1I2NXS/Y4BWLw71gRPwAggV4yW/aMgAAAAAARWKq5aNS3gAAAAFWLFBFhhPIAMM6VTH7uO6izzDCalY6H7tuoc6nzuAvXmaeRgAAY/4S/bZ9/UgfN4E9d5oZHBFfqp1o1LeAAAAA0HVAnDHe11Hm+AQT67dLRtJwrCIfywOn1YlwAInuPj2W5+epJzIy9bmshdrcHXQ1ZM76kcOBJo49K7zlWz/s2jFCAFE+x0ey3NTxpQxFYqrlo1LeAAAAB87Ti6YwS8rQYA+Cpb9ans7gje6aSqdv0Gwq6jw/qEMAQfvYJz3kUSrCTyoYGOi3FkZwfa5z1gM2rd/Z/gDUG69wfrP+n6orFVctGpbwAAAAIbFZcB7q4f3fgEYmp9bqLjb3XrqefRgtS5VVQjH4SSpoGRuimCBj77a3+3yRRKsJ3T0t3HkTZ1ZM03fynes6zff0ZDdjCd4WSUvaoljwpIU0jJTRlA1x45tvnv4it1Va0alvAAAABj7Sk4fgN4lxB7QB+VSFHJWdExCI/Vzt/lvrqgpbUhi3E94RuKk5LPtKYolWE9xYiTZft/yrT4Xi13lAnGg6yrM59WdKm3/wBur9IR0KjZK0tRIrFVctGpbwAAAAV0kGIAWisuMA1QUzfxWaFyhTmYJfT3IW4+IBWDMne7Q1+8fZldjRRKsJLbtHRTVaXMtrzz9gIjlXUyZ7xDATgbFLuSK3VVrRqW8AAAANZFL58CAM5LqTvAArcoSjYFr9TMLMhDPrNwBsGu74o9WEs9JggpbtTGxa7iAQ6ax0AZwXjEVuqrWjUt4AAAAVN8ZcAE9GwnAMZ6UbFgyNutctmgGoFSFLCcDtHbZFEqwlppLEFUJGC95dnbDhrv2INDtPSkB2HAHZW3OKxVXLRqW8AAAARuak0ADsy6a2JAEKytaLGWcmfM0put/mz6Jy3dvWkL3SvYc5+IolWEtM5YoiS1cLd7aQ7GvUxVKxSQvYsbHqWHWJyp606XvDriGNpCsNdhaKxVXLRqW8AAAA+LpitWAACU7atgHy1NVqF2g3P/ANwNAlSZ1q++zBxR6uZB3PWfcUSrCWmcsUejqRY7r2ucXT2NLl2gEu3QzUi9TvvcwsUurXfNz1sFisVVy0alvAAAAIP1cQAAci3kkGAEeGoqtmZLQNF1Z9qZDZlZVSHEUSrCWmksQOjK3iJB6AZUWN8uE0f1nWowNktlJIvRWKq5aNS3gAAAMT6UzGoAAbg7k36gAhazSgHrdF+kDG7v/dbvm+gMTtZzZjliBrhjw4N/V7X5GvcIeu0Z6PsbO+t0e/P6ExV1kNlGXIAHH5A4/IBWlwuwAAWXMz8AAAAAAAAAAAAAAagqbH5IAAGV91vkkAAAAAAAAAAAAAA/KoXj6AAAJv8AY8gAAAAAAAAAAAAAPUYlAfq/J+v5B+v5fo/fMEAAAAAAAAAAAAAAAAAAAAAAAAAAAAAAOO5Dj8gAAAAPDzAAAAAAAAAAAAAAAAAAAAAAAAAAAAAAAAAAAAAAAAAAAAAAAAHH5AAAAAAAAAAAAAA4/IAAAAAAAAAAAAAAAAAAAAAAAAAAAAAAAAAAAAAAAAOPyA4/IAAAAAAAAAAAAAAAAAAAAAAAAAAAAAAAAAAA4/IDj8gAAAAAAAAAAAAAAAAAOPyAAAAAAAAAAAAAAAAAAAAAAAAAAAAAAAAAAAAAAAAAAAAAAAAAAAAADj8gcfkAAAAAAAAAABx+QAAAAAAAAAAAAAAAAAAAAAAAA4/IOPyOPyAAAAAAAAAAAAAAAAB4eYAAAAAAAAAAAAAAAAAAAAAAAAAAAAAAAAAAAAAAAAAAAAAAAAAAAAAAAAAAAAAAAAAAAAAAAAAAAAAAAAAAAAAAAAAAAAAAAAAAAAAAAAAAAAAAAAAAAAAAAAAAAAAAAAAAAAAAAAAAAAAAAAAAAAAAAAAAAAAAAAAAAAAAAAAAAAAAAAAAAAAAAAAAAAAAAAAAAAAAAAAAAAAAAAAAAAAAAAAAAAAAAAAAAAAAAAAAAAAAAAAAAAAAAAAAAAAAAAAAAAAAAAAAAAAAAB//xAAUAQEAAAAAAAAAAAAAAAAAAAAA/9oACAECEAAAAAAAAAAAAAAAAAAAAAAAAAAAAAAAAAAAAAAAAAAAAAAAAAAAAAAAAAAAAAAAAAAAAAAAAAAAAAAAAAAAAAAAAAAAAAAAAAAAAAAAAAAAAAAAAAAAAAAAAAAAAAAAAAAAAAAAAAAAAAAAAAAAAAAAAAAAAAAAAAAAAAAAAAAAAAAAAAAAAAAAAAAAAAAAAAAAAAAAAAAAAAAAAAAAAAAAAAAAAAAAAAAAAAAAAAAAAAAAAAAAAAAAAAAAAAAAAAAAAAAAAAAAAAAAAAAAAAAAAAAAAAAAAAAAAAAAAAAAAAAAAAAAAAAAAAAAAAAAAAAAAAAAAAAAAAAAAAAAAAAAAAAAAAAAAAAAAAAAAAAAAAAAAAAAAAAAAAAAAf/EABQBAQAAAAAAAAAAAAAAAAAAAAD/2gAIAQMQAAAAAAAAAAAAAAAAAAAAAAAAAAAAAAAAAAAAAAAAAAAAAAAAAAAAAAAAAAAAAAAAAAAAAAAAAAAAAAAAAAAAAAAAAAAAAAAAAAAAAAAAAAAAAAAAAAAAAAAAAAAAAAAAAAAAAAAAAAAAAAAAAAAAAAAAAAAAAAAAAAAAAAAAAAAAAAAAAAAAAAAAAAAAAAAAAAAAAAAAAAAAAAAAAAAAAAAAAAAAAAAAAAAAAAAAAAAAAAAAAAAAAAAAAAAAAAAAAAAAAAAAAAAAAAAAAAAAAAAAAAAAAAAAAAAAAAAAAAAAAAAAAAAAAAAAAAAAAAAAAAAAAAAAAAAAAAAAAAAAAAAAAAAAAAAAAAAAAAAAAAAAAAAAAAAAAAAAAAAB/8QARBAAAAUCBAIHBAYJAwQDAAAAAwQFBgcICQABAgoQEhMUGTA5WHcRGiBAFRYiIzNZGCEkJTEyQ1BgQlKgJ0FRgHB1gv/aAAgBAQABEgD/AIaXJlw5Mu85Mvi5Mvi5MscmXHky7vky7/ky+R5Mv8t//H/tpz5f+2nPl83yZf8AA+3SV2lWoNpjbcaMR5jpUqSd/BRso3JEO5/QnHT8EMgaHkl+xEkVP/yqa5tjyneI5KfLsXQU1uNRHNqawduRVySBcZrEmGWHEJrB1r57lQ0nbnXR87bddreLr691WMpLyJoT4zDGAECA16P5Be6u07gNBtGzY0Gm66O3U5EpyIuak3nZ775TP5FHzj33ymfyKPnFny+nTld6FmIggMFWZbnaHVRzLc7m8Je9p8s/JMPhuNkKzwcbwMG+otj33ymfyKPnHvvVNXkXfmLUm4Zb12uohWZDPo4dzeJo6MIqOJ0f2q63ciaVqilkGU16NVJ2kc3GnpH0V771TV5F35j33ymfyKPnFpG50yrs1M7mk5Ci1VaJIg8jbe+jP7DvDrpvSjtilpnuX9QfVFqVxOG1uuoZ1xUWl43dLj6aSYdKlE4yJ3N9e2Sn3P6EH02iBQH6/tfQKuxwdWEZUbyookTyaMVOlDAgJkti2nXZIVuOsyHpXb+Y4+lDOdC4kmGJhj+f4rjp6tRwgqTcdaQVVEdR+OU5JY0Jxq/Xk5nEAjt5sJBxUWVG6ncBfNymtyYZSVsxyxFQMdSaaTgkTOqZssXAKaxhxhOQMLb/AFsAlbIoOZyWrIwemR3x0C7Ipn+1bxDwhg/VZtcdmP4T0net6/8A2G5bXbH1uKjOXpXX8wBtSGR6FuJMyS9Ic/SrIr3dbhGU3K61g0prqjwtdV8Pq2pWvDcqJHTDkkw11V2JMTymwptjKPne2HEAqttzo5RUQlHud23a1zpmqcJTw023mAxpYURNDmC4bPK6XqFBctLTycf3gfWluJxfj3g90rNtNhsUvM9xft6wGVWpTH4bUW1nrrAq9FmV3N3p2DEB4AZM/tm8O8IIL1VbXHZj+E9J3rev/wBh3Vd07Ks+sMrE7WX+mjuHDZokMJ8Gz2um5LqC56X3e5P2tLDNrUVjdzXhRpGVflJk0xQ7gORNdicKAUPVLU+ydSjO0oxu8Ub6NczNWDaYrlcQjNcj07S3HL5aS/rTHK1VgqqIx625XJHdxqjmIJXbmvQDoXyHIuJXw3Aa0Iyt/wBI8ySs6jGnWRa6b0pFMqNnuS6opzk6RXgva1Fzu9ZNKi0YxBULSTUhLcasRoN7WqOZ2rBRMRyFuWiON7dVHkORO2tAesu3k72rCtwczobbNRjqgquMklJ5fL9pOve7za2jo0IVWLhEPFDOj8Yuj3zLQq6J0QFw6L9Gv/dEVXlKVQOYOhhVKMB6a/8AZ8jLtVdMVPoHM+6iGOyv9eFy+PaFbgnQj3E4tF1/y4ZV4K1dIRouWSrh8QjDifhANF5tB9oRVSQ3UnrBAxl7QjvxuFzthooxtQVF8klES+XOZOPy7ra4jg1rLrNwmIChnR+MWR759oNe19EDcLjDRr/8w/WLShUFqADYVTMfPQQX+l8O8W8IcP1UbPHZj+E9J3rev/2DcNXRQ7Z9CDpHRF7ICSpD6ZBYAJk2MbHEGFF1iCia+YTX8FPc7STTDNMYSC0F3UnOdorBVURzVvWtWNbhlIcOSs2c9AZNyJ3Oppnc7wW1xrdzIbtTzObntUm4EVRJPC4bUy6Vpo5rAFiF2OHUBH0xngC5AT4d2ldMDqnqlKwW0nH07GiJQH+sQnDZ52tMyRR01SO9tfej9cRYrAxWFWxTNQdEKo95RlMg1kIDT0ZbO4XvDaqJcPraBADPKxm2fvQgnVN9UNRlTDjEWJFnd2PdSzE59JjgTPG042EOXMiADBCcwYtFm4Iun0PnkoJEqXVXagAfqEaNqTc40iXDj7eZjwA0xLKB3owCqXx3W86zTTrbEQV+P5hc7HXxJSRCoq12sF0X8xeb8drBdF/MXm/G1Bneb6i7ZbpX5Al5zvle0SotlQ1mv66BRrbUjwJelWVgU0ycBF1oDVrK3ndWL9UVYhCUJtyPUX+QutSnfYu+y+eMCqtwmRiuQv8AT210vSzPFoSnNzvWRl92uE6rOnQbXuF2LcjUbW2TK000n2yjK5f2aB2nW1uKbptbh9VBOVEnmA2x8/ZoaiqqqSyonDZw+OZMjic4pnhDNR8804OYJYj+aXSy1XRr5uv29N39WRCSoiIc6NgpLDU9ugMRfoor6pSuFRKnPSKZUKuVMy16NKmU41e1oUz0JQ+rvmT5UT2q3ymXRhC3Dt4hU1LCgsINPjIAjdt6OcIJ3TlVLUhVA4xFaRZ4dr4P6hOfIfgTNmk4wCMAZ1gjBa+YIWi/cBXUqIDaaEg1NqjqbwH87StSbnqjy4EebbKe4AcSycbyDATiHHeHeEEF6qtrjsx/Cek71vX/AJ9dcCO1UNXUlJRBIkU8sKZPHr49y1WuhV5P53lVE19RUDmRI6I/FtNLpAdKdVpqEna5ugYsvHwNCCJ3MkxuyZhjt7NVxN8BZQHKmGktbTLsNvx820K3Zdi9TzMGEomY6+zlfBM4cTzIIwI+sEcITmCE2+10Qnc5oQZ55cXchpKYvRIMi6ON+a5wQth0HvVwJqkDpkJ2ZCoUcE1RXU15SUThxRGNHDQwgxgxi2ZQZI1x6s6H4pQ8zAISyb6ZzK8ORJH8ExRHbMazfBTG61EcsmIadctuKQjbDpbeUkvVRyEzDyzKthtXBbhVS9yWf19+yU+9R8yJ0gaEifEGLmFry1ac/tY21m4icLzXGPTvPD4EOnzfREoykHhvJvCTbXrCgcbPV0hj2pdurKL5NJwSo61eZl9IYLbqSqcnCreZ3o/pDkU653S4DWoU+pcNqZ4HtMn/AN28OG5L3DK7Tkpu+n2Cnn1N69HqBkZ+nTh1SNmhhzWsYccTnFE+KiSu+o63tOjTkGMnsMjrJHXyHSlqi57C91SlpBfzT0aE5WK8pJ7NLFyS4RCFs2lx8SW+D+oUIp+yoSDcMuPVP3LJ7Wn5IzvEHEz6YFBQPi0Z5hifZxtstxEvrK6wKdZ4fYh4Q+OEnRjIPDeHeEEF6qtrjsx/Cek71vX/AJ/dxXSdNN1OCXADScnQPOVU7p3cL8aapnkg+TNFTApYwXEDGLmLCNz0pc+oQZq6pqwQsitDIJCkUt3O6Ata/p40Unnw2W7mPJMQhGlRJD4WLbmSjbBrvYjoPmxfqC59YSFIxJGWkxxJKYoEVAE4UNlgjBYzg6pEkwiaMmDmgAsAFzDD3+rnRy53Xc8FlKWdY0bsjMZBjkvw2r1rTKiqjnRKTpbnRSJMZQqd0aefLG4oudK9x+vt7hJLj1mI0jYyaQGGU4WlNtdV3cxQ0N6rCppjCKjf2yjpgfaYWeIqRiYbhi90ySf0fjKLq20Fk13JowGuiFNI/wCwzXbswo6PoSysU7zmppitoBFzDZVQ9OE10rS47GNIUbH2q6kM1qCUknBE6eTzZYyAb1gGABecIXb13MTty+gFoKi6s6DUhsQbJvP3hvJvCTbXrCgcXVMbqdEORWxhTerJDaaksqJAtiLIDnSdFQYkyIZdjyOBfiFXPbHuPM1J66q0CzMmkOTmzObWBLUUaytTgWNp45U0XXnfpFAvi3GQLY1AMoPwmKBk81f9wR6WcjlXXkvr6opKxk+pqhoY0fP4giBZVqYlJnMliR8pOd1L5rIulI1BezFaGhAQluoudVEVSHCDE1sdnbZmyayk0IEOiYmoifxENTntNrOUsI5kJFhtzR4eFC+wpXZ9slVhbnbKy+Wkt6pVi8j98qquINgmZKlJGQWiw4uW3e5FMTlIou3IsMVU2zXW5JLkecdCSqutCyTT8VY3HVz9VuK18PNMR3BrHjKMDBxBZBbhaW23lXVzVEQ3mpqYcZRUYE+4dUC7Syz5FCQT0OGMnTJKjoD+9UXXtn7JrtThgBqHE0h9j7BiubZgRSsIK2sU9ToqIauHo5w2dUdTPOVJkwvBgyHGx9qOtCHz0HUnBY0OUMBCgi6gxdAnMGJt17nB65TQG2jThW+tSRHY4DefYuN4h4Qwfqs2uOzH8J6TvW9f+eqlqIjGkiApXkt5rWRJtMtHGUVUWuesKT676rJmlV2D6vpR2LIhgEn3FhK52fthV3s9bVFUQOOnpmCgyKWTVEisJxUyUNBjgGA+mLme4FDyEDz043J9rjs6K5VlYbjb6pGEpiG1pncdo/dMyqYpmPwK7HF072idOC1tgTG68ul6aRaRi8LtJxZAv2XyQ4Spr4bdy10NctrtbQS6g6xozjvqy9IAoBcAmXC0BBB6NAf2Qg74lVxyja1dWM9SCnrJrn1X+iG6Y4bcu1mlXOK3PY7EsQ3GcbFgFp6lkRFRm+mppFPTgCRImWBBLE+O4+tKtG4fRo8negtQLKWowSTim1zvDZ8VWqEMXMlmOhz3KjS60zZPIDG8m8JNtesKBxTSB1WOFixUqIYMDiB6C4Fljalxsz2UzpKqeaea86FAME2lxSwI6j+KWohojZZCQ3EVPB5CKVgMIMP28uWN53VaoSLWrBUSllH90R2zvpU+Bw2yNphoUH0eNKSnI1Q9UsSujlVRUP8AE2VBPlRQRwtAwIgXIKFUFs7GHMdwd6uJCl0sxIJV+iVB23RPbto8t2xx9WIphwi2iogYf0orYvVVVKVF1r2sZ/kFXWUWyjUGTm6Z4bd61mQuc1yEibmShB4zj4qEuPvQhoiM1UdJTExPLESBEsEAQI8dxlaYaFxqjl3OBDaoGctxylnFNnKXDaGVWn4RuiaGIOpcqHLjYPpgpbG8O8IIL1VbXHZj+E9J3rev/PbwC6YE/pIa9MzNc/OjtMYJXk8butptdKzqupRNwk7HD075iIkFoRhe5vJW321c+oblSPMwCYLoKB5rEfqjwabnjt2uhBWkI0lrKIoGSKsnYoQrGkygOrKFZWaJjVmotNRCHNEkOvOmteodJVDaH1oDjURl5ugVWuJ1uSRcSrDmOWHLqEDMuRR/c6Thut9bdK2kJialjHVJQMhFSRGyBbRS7X9Ccfs0wRL5vhc9i3Iyljegvo427ZcMogAvJk5JfStJnjB1YdWVMCa4CsbVQSFHwCuMCIpl+1tun/mTT3jtbbp/5k0947W26f8AmTT3jtbbp/5k0947Wm6b+ZNPeBRhBtYmvUJza9f8eFmyQTUXXW7eKsCMIH7ZfbJEYTG8m8JNtesKBx2jNvlu1S1wOyUXMhBnm3ChckeTC3wbhaQDckXnK+j4wuYnVHkElB8KEYaT6jq2aRWAeAzFIPOSm0jqAZYqCVBCBBCDC0Bh8gQfx7zWQjbZtaxgjlR9ej6zzAilTYfCDavKq6YSjlAjWpl/R6Esiga1gPtbbp/5k0947W26f+ZNPeO1tun/AJk0947W26f+ZNPeO1pum/mTT3g0bMHTA4wo+sQYTXziCYtKv49F1z638tgC69GQEvtUAXPG8Q8IYP1WbXHZj+E9J3rev/O3c7h7Ptk0QSxJp/oB1vQFmmsdJkOQHfKz9ejncK4aVV1wqZpRW1Puretakk29Kv4clhs6hBDbbUeZTTKe51jepyF4xkFor+lTa7wSCqqim+53eNrbKIJlQ6kWigcjaf5oMhIgXAncYqaJW+FimzQ8v+mht7BOYQrw2jdrf9IiolVqBeDd52hFh/oGaFw3riCombe1LyjkD9wTmMIAXu7UzcPu65vb0IFvxhprZWNH8Mbybwk216woHHZeMhORLZ05L2QWjri5Mh8IUX4L6SCdbF3y4aAKGJo1Cygrm8uFpN2JbEuiW9VY8JnoJlJjaHWxO43qqCbPW36dj4QfOCnzSQ0GO7toIKi6bi9BSeVB5zJuZWXoB4bxDwhg/VZtcdmP4T0net6/87ucrpWm4DW2pNBsuDrMZRIIaSW+L3mz2ul5t5fc9Lzwcn7EpCG1qKxO5q/pgiytOmuZYueKb1puvJHEImsVj0tSnRRUvM0VvNN6BeZ6yISM6+NLdOco1d1DRDGbOStRxyPRZBTUwOh6keMqFaVIaitnk/3Q0UgIrmc4bmum5QqPs51O6CCf1hTY2og7yGjht3Ei3NKtZxiMqjYLRHMlSEVAKsZb93CsneQZt493CsneQZt493CsneQZt493CsneQZt493CsneQZt493HsneQZuY93CsneQZt4hSxfaop1lZjPhmUaISC6m4fyPIitjeTeEm2vWFA47NjwlnZ6yr/wAO7ap8OQ5d4fzk6nr0EJNaSAvlRMJK2qICsmniZ8QsaJmAhipi17XE0rilEMFyolHANZ1XSAQHOQ+B0XQaFI/q/MQKt1FoiDJ2aWnntCHw3KtOJqpezvVcVIp+sZVZ5Yo608Pht6SFueR619Ea1GwohuVCkMqCRZy17uPZO8gzcx7uFZO8gzbx7uFZO8gzbx7uFZO8gzbx7uFZO8gzbx7uFZO8gzbx7uFZO8gzbxDdie1BT/KbEezRoxQEJ0No+CeRFfG8O8IIL1VbXHZj+E9J3rev/Obly6VnbyobUUBtOHqsoSqEbRWx30SSk+4QlBgPNruEdJcbXViqohKVrivdiXJqLoglRH6AA2qk8iztSO53eVrbKboNQKi2igcznjwp1N+FuO0BtaCR9GzkqaeDd5F14Aio8Zg8XY02+9Gu40ZTSy51KWCIxNUI3VaCnZbcrjmeMD5cbWmJ5/M4z1LBY0OUMBCgi6gxdAnMGJZn3ZSE3Wi0o0qjOH/YQDCKo8wwlUXBlSTKJr8fy62nkiGP1aFPElS9FUMs9RcDzkdAaiEU08xpWvAbtiKGI13Uw6YFP6yuofSKAalO17utazqPD6S25eMnpmYOQvJ1mhS5pRvcej8NdimYiq3qACD1q7d4bybwk216woHHZreEu7/WRf8Ah3ctvlUqgoUbUqICBrNuaFDpo6oaOFlu9NNNoiY1E0VTxnPGjnHByfDFoZup0OXFWeRUoxnNHU1HUHlrPNHCoqJyCnnThxSAKlS4PSGDF3TdG0rUbtV1NOFnUkSpKYoAgIB2UpUkGb5JerxdjsOrbjcakMfW1a1vuba4LfoiC1nYcGluMweiADQLdl3KiG5szeuxnLYGtdCLdOrsVxNxHdSIrpqkngnSCiWFLHyV2q386baldU3RmdJmPoQA9rUWOo4DGGKiha9AvJr0fya7MW7HTGg0mjGVUZ1THAIBBFUeYIQqSgapllFl+PpkbLzRRsvsKPPliSZYjKGGipL7ykVDaiIUy9hlXu77s+H41bLrYlMatk7HaZ0ilzkmWxN1jWtR8oJ7flo6oTOwBRfvRKELntGFyGPtS/FkwlFkcuECIsNfhvDvCCC9VW1x2Y/hPSd63r/zb2ejUjJnOxxLa4USkJDTDSisKN4S4q6rndcsqyOOOZCbgYv0SwErvtrfdPyobrTLRw6XF0MbTCaKJpkTuXS2G0+Gw5kNWRiiklLBEYkqp16i2yv2vq65HYHRmtbPP+1ZjtRxaJt4vC5zW/E0aFAzACDkL9JvpVYbFZ8WMRoNpAQiiUgoCYVTkVP+C/bZqQLsNN4GtDEIJ0tMjQKMxFqUorkWEpDd7UdrOUG85EE6ITWUTgw5HfsWr4Cm23ysN5RC/CUALrNzwsm5k9FxOcNBfk5OikmXZWmJZzUHdKDidah/3UOFOD5qAjuao5UYtXnKlv3UpggNca3Al1wkaOYg/SKciKpSuMR6VwCY3k3hJtr1hQOOzW8Jd3+si/8ACvIiM6kRXTVBOAPET5YUqcJX/wCyu8bWlQ55bbaGdPws8z4wzRVeCcoqCQdLGSxsUsZAE5wR2ndDuUMRNBKI1f8AMycSC+yEVmGsCrCoMPlf1TcgvUP2/ZD4FwhjY4YYYWrWJrz5Q9G2IsiLlDsanZqk1q6SsqPZL0gICJi/FZyal2emYIBI6mlSyy9A5uP1+Xogk2ApMebOeLROt5yt4+ITWEbgxJGfsYr4Km3HwsICiFn90oAXWbnhVN6oHcSnDQW5OTopJmeW5lWtB94Sg4nWfy/ie4U+vOdWJMcfqEZuBypb6+kwQWwatola6kujmIP0jXIiqcoDgdMsasbw7wggvVVtcdmP4T0net6/83u+LpWqK4ibVM7QcfsX3sWDVJHMd+EMIDrD16ROXXo/hjboXRgrlFCjdAcC/wBbk2NMyiE/O63H9rbTceocXDrdbnWZPjII2tsnHRZ9Jy42ydrfs/qIkt1Olu9WkyWgyis4cviu7WJqVbsDSEVFMr9TpUTiWsFBkK4fZmr2tnrarlIENmjTWDOchGQvhoHtM12XJXUUJxhCp02j5GeQ+9LOm3zpltYEAHUoCAv2YBwOQ49uG8m8JNtesKBx2bHhLOz1lX/inyn+JapIoe7IfUfJzmargKdVVEi7RtS6mqV1VzPOCEtTlaO+k1j/AFYVUhTQlI8UNpwxY4VGEBMF/gpco6qerbkMo0YshBbea4Jy9KHZS2wsVUKKLWkmZTaa+pWKZAmUdJ43eLGlKN2NodcVyX1Sk1MLagECR7idl2v22csKWp9w6aUWmGY5SUh/DQVairluRusElF0HqCkl5GORRd9m7bxUyWtCac7VY4FIExjl+QR48N4d4QQXqq2uOzH8J6TvW9f+arTq1iuh2l+Z5TeBvLQiM9GGM6wKtql5SrHqNl6THmr9bcbzWRlE9r+Qso3J1y2BXbHT71jj62cp+xFkVPbLlbrubaErpawXUElUJBmk893Lp2yDZX77xGTfqyV/R/N5ivhTR+4UktNXSB8sZTi5ksYB6MwWqr22Voqq4c8dOUzgspaNfbFWpP2QkHqRo3rZVejsQgf6RYTY7yNzi8txlExF+x+iQkZB1vG4A41cH/WWpY2xloKlwynHv0fh5BVwPwlJtttBaSImJqWglE1PIBZAkSPGryiqmWvKKy7KlmLwHY1glcJTDR/dmLG/kSIY92Xsd+Q4jikGiWmOg2LjjIiWLdDSa46wMpipXx1l2obeteuRkWUaWGy4FUTRyZOObtlTQ46zhsyxKnZFZnP/ACElPY6vgI7+x3HUkyD/ALmRsdiuk4DrcdxnWKD/AKytNW0YtMwmdIHXOlvWUzwf2ujh2A4Wp2Zae2GHFLdZ7fJ/rBSPhUU1OVCRkqaJgmC5gLkGAqu231o+rY0qHlCmAszFsbR7BFuVtkNA6waM62RXk7EIH+mVF2PEjadYnsuMInJ/TxGGx+iYkcB1u+v9xrAP+srSxtgrQNLxxMP66ejciqxf8NTbLbbbOQkxKSEEklpyeDkASTuNWtGFM9dsU5MWV4z0O1qZKRVRzSfdl7HfkOI492Xsd+Q4jikGiSmCgKL1RlRJFobPa51ZFVjKX8zu6rpWue57Radmi4edoxkd6y9RPktotdLDneBFqnZ3OHndcZkusskT/GL2NyhDtf0JyM+gByup5qerUiR2QcTkXnmvryupq5hQU1U8MbUTvyVGNWkoUQVPwzKjOM8i2zVkE4GDSPU1GFY9OMQyezVXrLeeaMCokc/8W1jAAhja9eQejQHjcZ3Qxrk1di8CgL/W4vjbM0hsP5XaFXSdMUy84qanc4+VvPcyIqRyL/iymlpi8mKJQ2SBNEjQQoJgv2c1vfyHw1js5re/kPhrHZzW9/IfDWOzmt7+Q+GsdnNb38h8NY7Oa3v5D4ax2c1vfyHw1js57e/kShvHZz29/IlDeOzmt7+Q+GsdnNb38h8NY7Oe3v5Eobx2c1vfyHw1js5re/kPhrHZzW9/IfDWOzmt7+Q+GsdnNb38h8NY7Oe3v5Eobx2c1vfyHw1js57e/kShvHZyW9PIrD+G9QVQq1F5DVUmjCKUpWTTQJpOUf8A5b1/w/5H/Jl/lv3/AHv9D/j1f//EAFUQAAECAQYFDgcMCQQCAwAAAAMCBAUAARESEyMGEDNjcxQVFiAhJDBCQ1JTYoPUIjEyQHGFkzRBUVRydIKEkqOz00RFUGCBlaKksmFkkZRlsHW0tf/aAAgBAQATPwD/ANqSzNOF9BMGWxd8vhE4hHRLgXaSH4FhH2IkWpbPonY6pxfKqfvWrxiaMRWxPp/AiU5LQcKgra5YsB6EeV6QlZfGkslDaHlnLvGMT/MyLvc0snBsYq1bsX0wLly2qGHSMoF0WqJa+Q/8qWvkP/KlEnQXLl3CnN1q8Cw8QRfAL0dZPBQ50Fs5DDmWVfGWbJjtFpGLpPClr5D/AMqWvrD8uT+KtSsIeHIiFcjvCGJ4Ah+lf7LYORNjWj8ZKC2ptHLX1h+XLXyH/lSfuhOikIwageTltA/Ov2EAvbw2Dm/pdl7PGVe+opg1kmL/AK5A1NTm9CVr4JXlzxVuLdYWnRvB3WkqrkVE4ihKCeggyIxIJZ67wN1cvWHajyXRlmSviyFy7R8O2HwBck3h7AdsUs/ZoktdOtmD7HcZNfl8oXOKViQmuRZJ/elygHZhb2hejZiXU0iiL/ZfZO8fqaHfsFS6hIrG3VyyYdqTK9GNKl8WSqL92+JbEn/5n3EY0Lmm10gD66etfl1PDFnEpVIW4JwwfithFm7PggjuYZhjZWxP5iNFvpEkxmJyeXiUGD/U8F2nAAJkIflWELJpl35epMPGdF1E8L8s1D6GeXJ17P8AZnYu8fqaHfsEK97xPCrIvXOcQ0yAu02py5VnlolCB6Je+RdScnBWdsWGvwXzV+LOBKhJP6JclMUE+VDPPRXEZFBBE441TYk0UCdsSzFHuT+Wjc3USSS0JCI03uXzAuiJkukHVXxttMSxNFIoa5asA5w5VpRm/L4svetnC8mKaemzELyBD4g0zYk7lq6dksU0z8QfvkXKzsyRSNHvXr4umLTox1UcXG7OJs1RpSmkPCuGOTD7MBDScRYTX8eylBcImEYL/ZEN5lHI8whH/wB0gZNY2J6P7i1kbChgyKvs3BAyYOhOWy+1DwDsw2wBzZ0hpIwrhjkw+zAQsnMYE2/GlBMIWEUJ/ZELtuxd4/U0O/YCF3zQhhUuop9TGv2ihyVx9qnp25MmaabyxE8gqOONUpyzFJDIsC5esS6EtbSIqr43BCHenhaiWTGKk0CyWBc2oeMy6BQzCzJMnPod+5y9ez2wV3UTwwyLj+XIpb6ScmM4vIDkIlGRf1NBdpiNPaunzminUzBsK8cF6g5RMIIlhQ9H01kW2bMtHfL68o1FHMRqT5q3XPZ/QxoXZkRPLC0hcIIYQXRiIcmqW3YEHKIupiweLOeZDn11ek6AtRfMrbSAxR1B32pDtHdoK1ZEESpdy2cRrvEtnEa7xKPRR1GH6Gjdgysg2z0hiVPDVJmPVsei9X4o2m/EJUGjjrlGka+x4mdqXTZvo6hpQeJbHhezg1hKMPjRJ+exjjkIrVwekl2hFTHCnYhMIOb/AMs9vbImYHXJLA0hoG0QHmFcAXqk/aEqSKu1KQnwzrnxwWKOoaWdXXsFzV5NkCheFDQXSXNk2eaMiELXz5UzhicKdK/RIk1LeAJ+JxKydoa9dPHXxZo2DeOCZscoqEMRwoeD6YQi2rVn98vryjkUcxGz0Nuuez+QjGhdmRE8sLiFwghaxdEK3JqhuP5sQcnzu2gUXd8xg+VZWZS9AapzELVtOxd4/U0O8/KuzCAIB2xClJ0c3vyX4FnBWpPdU4+keEpP9JKNuZdAobhfkW38wRvfSWfBFRSF1D347Eoi+ka5FRRrnAH261c6Tky5xKsSF2ZBkkvKndgFS1inoeD8PSJJtFeXrocV4/s+iZjvNJVRIq7UhCnyhCL/ANcSEWmtGD7W+fPv4CyXPKpKJCyQGjEdiMcgls38cjRx0iYg/EKvkxpUuQrqGQOH+MbRgHk0dfyyeWvgHxq7k5OSg8VIbKE95qf6C8fq97jKqgb+NHhTItqX4GwB3hZOiUeD4hhENPgCELkhj8BGP186xNDXsAtv1XDifHqmWJyHkI8OS1WhFk26qCMIwwVukYRFv4ihJ/zx0VVSIaczuBxWpuiLzxFygScoPrUzYgks38bip/c7BpT9shOTGlS5NlKRCYJD593UrAPEzq/LJx+AfmtXNpyUHipTZS0ybU/0F4+xd4/U0O8/CS9YYIWliQXrEg5x6NJOAEucZBkF4iInlTSUkQAK6idTo3g7zSVkcEFG+InAMrEmPX8BFuHOJqY0+RrU4LuPrPpGZL3R1kSCq1EcR70ZBkm8Y58S12YkCoptJckRgAl/E9I9LeaOzRjKOg8LwVyzFpmyG90F9I0Yhr3q4sS0PYp6XZEeX0aR44k0I5fxgPwwpldWg8+RaB8ytKPYRP2lcmigpGQ/85MY9HmZEeyeSwuWJ6wPm2sRAO0B2qCSeBqFT76Cjo8AgicmQfgLxIXUIgk27Xl5RXbpuKltE/rYqF6RJMXq97jr3er49YTOS/xG0Gj6OKBwd3FyI9I2Yyyc4FRkQk+kk7eRkTjIMk0edcSS7yvH4iJdm5s+iaDQpx9GpJwScrhw6cEtSFKvxrWRdM9OKHitTnJ8PwIHxyEXQhCN2eWCShN2zbNvIkYZrXskI+XKIx2PPCk9q8s5QDCJ+ScZdFGSPR/0SatNSxqBh58RZXtznxfTQnFCmq3LtfimtKB+QOb31r8BEoQQb2H2NrajNFnOTK5DyWp8nz8QyUtnZQFs30Vm+dlHd5pI8cSZkdPYuLjzwlldWqM+RaB8ytKPYQv2lcmigpGQ5MY7HmRUeyeywqVq6GO82F6AcxW3aINJ6Ldq+MZhEmpQUReTIOlC8SfLTPNIq6TPCAFSyin1sWVzqSYuyd4/U0O8+opKSwyYhc8piTpGJHSKTKvOsTBim6bMRZsAkJHwPJDhxy3UTqdIyJeaOuiQV2iCDPu2g+CCPe8PdV9/QvsSLrizRE4zEvolgha2Iv5cRaQaNQ8QCUEhmCGSdF9LzICzdpjWO6dXu8YX6XhEeySSSPFNJC7Mw4pHiohoiizgbe1+jj5KJFMShjCvrSxqWTNjVIKLEYRN9wYxjmmoGjc2gR76ijAF86gxefMVFJA8w+Pk9eYAJcTal9gg48Xq97jQichCEnnoqDoktdlC4QJd6ieN2XulzmMmPjyhrITFg3FN0IgUDHjQv9dYSE5XRNgB+3jKKl1B8Hn18xhQejpHVO6ziqi8ntFjtBElDAW0dbPzlXqqFw23uG7bjhKSvZ1qlSVTVMZihUcs/ekpKX8MfEoxIXejiseKOGtjC0JD2n0cfJPr2xYwuv8AC7JT2YySbosWwBBmshjEMW4ge0EOh0/aNb9zBi9KMw8j0Z8a1UDnisICuJMi/LqDMLtMXYu8fqaHefBVWE5jc4t4wv0NBktS5xSeMPgykvInghkWy/SyXcaOz4ItE2osIWI16nvOTGalQDZtUnCbJy0dsyThKAqPeIJaKJ8U5LEUSYHunTAubOJah/1SIq9G0srQgrP4yJdxZ9J4ErS1HCoMC6ZMRaEVWnnkrLxCRaFO5OSYQxDRNx5559ySPDtI04H7lmL0TMdUA/ROvF0jVhC3xvxLPHg3hDEIGh2ttuDIbURRWlFdUtn8f7zLZ/H+8y2fx/vMtn8f7zLZ/H+840/Fou/HDi/dnVi9XvcZkXRMK4iReoC/VBgIfSTD2ubgTAMMm/Axf7OIRMYD/drVJHJ8Bz2raFvnn4gx48G8IYjA53mp69lqnUJA2lnXVLZ/H+8y2fx/vMtn8f7zLZ/H+8y2fx/vMlbq1rnxTfFn0TG0N92RWLsneP1NDvPTfrPCF8NepQ6MW6UubQqR11zO370k5ilLPP8ACtfB2s4hRSEnuXrEumFTRzF1V8WSOOA4+Wo8gg/IKjiETwQUXbLCazun2jeDH7VPXx+HM5tphe4a/wAVt6riz6VNbGUdzEML7K1tvRDhkmJpVDx8y3gz6z/D4PmCDGQFIT+CEYvV73HmWEKYzCF9sitqroogXViPxMU/JhNFAinJ/XwOngsR/L4P1yDF2TvH6mh3noV73icb8USifXvE2Ac2ivwpl5J3lolBx6b3SLrzE4KbLNyz3onQc4AqElFnEyQigTsdFq3dhzZxLSQfUVtOIO2yrk3wCCOZRCr5iZ5KGkZXzzKOnxqOVdFIon0sfwCgJd+l/wCmQ2N87fs0wzCFuS6a0sihu3qF1LzlEjlrpG++y10jffZa6RvvstdI332Wukb77LXSNd9lrpG++yG+ihyM3fSVDuCjxer3uP1ex2vJWrdrrM4H8u0Y18SNwgyg3Rrmknxw7CBhcvmntMlm1JXtXpNTBIqIz1htdUnoFqqpQSwr2lmpNTGj4IA6tnP9nbY4g6eMUQzCUBLlvORmUN29tFD8Pj2ctdI132Wukb77LXSN99lrpG++y10jffZa6RvvstdI332SH0UMVo7BkyWZ3BR4uxd4/U0O88CTfMOh9nREor2IyWYs4RK+GDuFbPGJJjCLN6J0SGSnWjCBhcvWujr3gs2pK+CCjw3+C05bt1pIeRfsybQvjZwOYtD2KaR4QdkLNpVxSbQybtw1cisijL6RzyL+ssHH1JGTn2d2XOJViT5aZ5pAAR6UouIKPgDe1/8Acir1+OiUHiTaKNqaMkSwX4BOpijEQbQxgLSlOSZEihog8I/+KEf3Y4zhEWGkk/dU4WQwfwtXxvdOjcfbkXesdhGbiDI14PSZMnEWrH6ve4/qDHahRSQ2CsRqBfewWMZ82NJMc57K2nBk4hDyck8D9go/AXJ24GxwjYfOmJr3tB1x8xasRSTCGgU3KFJJifVuC0AN0zpyG7clF0APprTJyu0cu3bglqQs88ou6JNGIYD4YVErwidEWuPmVZRKzY4RQzStuUHnBVx9eRkWgnDU47IoiSL+n4NPyKnZFr8cg8kXODViTIASPi2fJjj7cN6X5yKuRfHRKDRFvEg00eSWcK7tfUXii79tDGItKU5JhyMCmBQjOQ0Z/drjr1LDjXkoi6pwsh4+e0iJsvo3H0Fpk43nHoTW+NsTXg9IiuNfEWrH2LvH6mh3nbhdkFm0YinMUxc2JCJFpph+DbAq9TdoalRy5wiuHKresLwlyTB91Bmr6nN6UrXwTgcxQuGrkc4ShKPoyokX9LgD4i7IVp75WpKwC/Jr4hfq/B5iVGqS6QtKQCzi0yAiyC0YMR2Agi0Q0bU10J4E+6WDPV9EbkicmST4Op3TR0HxiKOfHDXpmLlHaAnmnlNhzHu8SjESdRJz7Rwss+PB4hhxQjxwSyGEGp7xc5fIs+PKHNhtpge+ILuxuiORIyxBVB1/Ixer3uP6gx2pUWojiPSEgyDn5OWVmhDo16SBuic8PIk5QeMa5xkGT4Zp5pAwzjIxD0Y9USj+EUQi45voPClxp8c8nI6HOC+D572zLzHrvlejHQjEfwBOJzZWFOyfF3dSbw+TJQuTodk5bOQz7qVTfw8rHDnpmLlHaAnmnlNhzHu8SjEUdRJxP2jtZZ8cAI5HFVxB0SyGJpqe8WQ2Ts+PKHNBtJ24uRau5gXRXQuWIJCB4uxd4/U0O87EugjPB623rD9I8IOuXNJ5pPMVkpdPxWe8oxP87GO9zqScEMdLp+Cz39CPrYx3WdGnEZFDmGQqzphsM6l2u1LnCVNuwBalIJOTaxUHieA+8HxFyg6CxDBx2nxDpceNuvNuEDJtn6NQYOsNM9N5ejFXJ1JOWti1hdvlW0Eb8hzLXKk6qVY/V73H6vY7Z4OYgli+GbmEH5Ylo8Ma5CFaYWwQPRWAt2Ijzje86kiosiCKDyxkR/ptWAd7NB9K8cloE2FnCrQiQE2uDuCznpBWvux6LpSXY+InaMAII6qcRvEhfpjXqeWjiLTKCiJEMHnIvEi1L42y825Qhe2do1Bg6w070t32Y65OpJw2sWcHtsqGBgVkuZqgl4Tqpx9i7x+pod51XmGV47yLZiHOuyrSMXypeIYZlbgmoc0AcyRC6iU+Yo8TiAPiotS2fStCUHF8mpIK7QLhq5HMYRRE6OdHBXdlNhWFzuwKy+LGPvvo7OsHgSjmKMg5+TIOeWBrmeAE/wCsKll9xKOYOtY6X2jM8N/wlsNL3+UHwXbQgntXrl7/AISw2e6+f2VkBl9xJsATZq3H0YUByc20W8fMd/txrCMs5GJAF5RUtkuFHf5bJMKO/wAkPnz7f7kQwlLaPSGJuoGnj8AEZIbH0TcnTEWVi57Mi6kogBjhC1FovAZF+2tcjYFFCT/9EsobgVUJ7U8Qn/wlhBFtTQ+cvzaFjZ/YKtcoPD20MazK6WcYETUr6+2KOYgiC8VnLA48+DxLT3yamBvJZOuQEo3g8yjpfasyw3/CSsDi9/lB8F20IJ7V45e/4Swzfa+C/wCkEYGRO0BJmATZq3H0YRhos5top6+Y77b15hFtGRAl46uPLZJhR3+WyTCjv8kPXz2YkQcBQEhbR8QxcmBP2fOgLun+Fc4/c2jh411NIpXmZ13j/BW09zfLh5F1NGtP7sr8O3j74S7Mtn0TQdJy/JqScLnIVw5crnMQpV88i/M1LUMTxpkXLE083JOhLUMv+ipcoCnKtC50JKwi5xKv3YGWls9Xa79jE3zwg7rMIH5qVVA2eENjvmH6N4MdcWdTzifuuVFqMgz5QRUS2FQbu8thUG7vLYVBu7y2FQbu8thUG7vLYVBu7y2FQbu8thMF/IlsJgv5EthUG7vLYVBu7y2EwX8iWwqDd3lsKg3d5bCoN3eWwqDd3lsKg3d5bCYL+RLYVBu7y2EwX8iWwmDd3kzwRg7Z00dtyWojBKAFoMgl8f8A9r//AP/EABQRAQAAAAAAAAAAAAAAAAAAALD/2gAIAQIBAT8ADP8A/8QAFBEBAAAAAAAAAAAAAAAAAAAAsP/aAAgBAwEBPwAM/wD/2Q==;fontFamily=Tahoma;labelBorderColor=none;textShadow=0;whiteSpace=wrap;html=1;" parent="1" vertex="1">
          <mxGeometry x="627.5300000000001" y="610" width="79.94" height="60" as="geometry" />
        </mxCell>
        <mxCell id="9tiRhB4PVM25RhnuYTAQ-32" value="&lt;b&gt;&lt;font style=&quot;font-size: 14px;&quot;&gt;(0)&lt;/font&gt;&lt;/b&gt;: Load Assets" style="text;strokeColor=none;align=center;fillColor=none;html=1;verticalAlign=middle;rounded=0;fontFamily=Tahoma;labelBackgroundColor=none;labelBorderColor=none;textShadow=0;whiteSpace=wrap;" parent="1" vertex="1">
          <mxGeometry x="730" y="639" width="140" height="30" as="geometry" />
        </mxCell>
        <mxCell id="9tiRhB4PVM25RhnuYTAQ-34" value="User Input" style="text;html=1;align=center;verticalAlign=middle;rounded=0;fontFamily=Tahoma;labelBackgroundColor=none;labelBorderColor=none;textShadow=0;whiteSpace=wrap;" parent="1" vertex="1">
          <mxGeometry x="680" y="785" width="60" height="30" as="geometry" />
        </mxCell>
        <mxCell id="9tiRhB4PVM25RhnuYTAQ-42" value="User Interface" style="rounded=1;html=1;fillColor=#f8cecc;strokeColor=#b85450;fontFamily=Tahoma;labelBackgroundColor=none;labelBorderColor=none;textShadow=0;whiteSpace=wrap;" parent="1" vertex="1">
          <mxGeometry x="790" y="805" width="160" height="120" as="geometry" />
        </mxCell>
        <mxCell id="9tiRhB4PVM25RhnuYTAQ-52" style="edgeStyle=orthogonalEdgeStyle;rounded=0;orthogonalLoop=1;jettySize=auto;html=1;exitX=0.5;exitY=1;exitDx=0;exitDy=0;fontFamily=Tahoma;labelBackgroundColor=none;labelBorderColor=none;textShadow=0;" parent="1" source="9tiRhB4PVM25RhnuYTAQ-42" target="9tiRhB4PVM25RhnuYTAQ-42" edge="1">
          <mxGeometry relative="1" as="geometry" />
        </mxCell>
        <mxCell id="9tiRhB4PVM25RhnuYTAQ-67" style="edgeStyle=orthogonalEdgeStyle;rounded=0;orthogonalLoop=1;jettySize=auto;html=1;entryX=0.005;entryY=0.162;entryDx=0;entryDy=0;entryPerimeter=0;fontFamily=Tahoma;labelBackgroundColor=none;labelBorderColor=none;textShadow=0;flowAnimation=1;" parent="1" source="9tiRhB4PVM25RhnuYTAQ-11" target="9tiRhB4PVM25RhnuYTAQ-42" edge="1">
          <mxGeometry relative="1" as="geometry" />
        </mxCell>
        <mxCell id="FK8ZPzGPm2gjukNe_fy_-3" value="" style="rounded=1;whiteSpace=wrap;html=1;fillColor=#f8cecc;absoluteArcSize=1;arcSize=30;strokeColor=#b85450;" vertex="1" parent="1">
          <mxGeometry x="1175" y="600" width="375" height="345" as="geometry" />
        </mxCell>
        <mxCell id="FK8ZPzGPm2gjukNe_fy_-5" value="" style="sketch=0;points=[[0,0,0],[0.25,0,0],[0.5,0,0],[0.75,0,0],[1,0,0],[0,1,0],[0.25,1,0],[0.5,1,0],[0.75,1,0],[1,1,0],[0,0.25,0],[0,0.5,0],[0,0.75,0],[1,0.25,0],[1,0.5,0],[1,0.75,0]];outlineConnect=0;fontColor=#232F3E;fillColor=#ED7100;strokeColor=#ffffff;dashed=0;verticalLabelPosition=bottom;verticalAlign=top;align=center;html=1;fontSize=12;fontStyle=0;aspect=fixed;shape=mxgraph.aws4.resourceIcon;resIcon=mxgraph.aws4.ec2;" vertex="1" parent="1">
          <mxGeometry x="1185" y="607.5" width="45" height="45" as="geometry" />
        </mxCell>
        <mxCell id="FK8ZPzGPm2gjukNe_fy_-6" value="" style="rounded=1;whiteSpace=wrap;html=1;absoluteArcSize=1;arcSize=30;fillColor=#dae8fc;strokeColor=#6c8ebf;" vertex="1" parent="1">
          <mxGeometry x="1200" y="660" width="335" height="275" as="geometry" />
        </mxCell>
        <mxCell id="FK8ZPzGPm2gjukNe_fy_-7" value="" style="image;sketch=0;aspect=fixed;html=1;points=[];align=center;fontSize=12;image=img/lib/mscae/Docker.svg;" vertex="1" parent="1">
          <mxGeometry x="1213" y="669" width="43.9" height="36" as="geometry" />
        </mxCell>
        <mxCell id="FK8ZPzGPm2gjukNe_fy_-9" value="" style="rounded=1;whiteSpace=wrap;html=1;absoluteArcSize=1;arcSize=30;fillColor=#d5e8d4;strokeColor=#82b366;" vertex="1" parent="1">
          <mxGeometry x="1230" y="715" width="290" height="210" as="geometry" />
        </mxCell>
        <mxCell id="FK8ZPzGPm2gjukNe_fy_-10" value="" style="shape=image;verticalLabelPosition=bottom;labelBackgroundColor=default;verticalAlign=top;aspect=fixed;imageAspect=0;image=data:image/png,iVBORw0KGgoAAAANSUhEUgAAAMwAAADACAMAAAB/Pny7AAAAwFBMVEX////+wAgCd7wBd7zr6+vq6urp6ens7Oz29vb+/v719fXy8vL5+fnv7+8Acrr+vgAAa7gAbrn7xkP5+//s59k5i8X+wR//+uyWudb+zU7y2Jvw9Pvo8Pf99vDU3uX/5aefwuB2q9Vro808gsDe5en/3JIAZbX6yliEs9n104VgmMj9xjf/7sjv5c3+zWLs6ePR4e/C1uizzeSMr9B4oMtQjMNNlsuowdjx3bH/3pz+1Xf/89n81H/z2aT95LP/1W4s5QrZAAAXQ0lEQVR4nN1dCV/iPBMv2PsEQUBpXRVcV8UVUNcDj+//rd5kcrZNL8DuPm9++zw7W5Im/yaZTGYmE83TULItXdcDTPmIMhxEOJ6BKB8/w5RO8ulyPj2AjJiyICNQNqZcXBiK+CamICOmoIhm8CL43SZQLv7ZThfxDV5LgDPyhtEimIIiNmTUCsEE/1kwumEYtJGGAWW0wEQUrRAlj5RGyYJ8uIQFLweKgEGUDi/3cGEKhlEOpggYkxcRtbiYskURh1K0FsukDXM8RRHbBACuj5LroQSUjYiAEZ5np38FyhM/ZzJmipCfA/7qQJHRE+9GPwec8lw79W6gAqDcNCU1DGFCySUfBCX4IBYi6AjDz3z+q0u+MEp0hOGMZBTghw75XKwIvJp0j44onfQ8fqiRTmFFPP5u18DvhoyYgkHg4MLQPRq8xueFXV4fqQXViAaomx6qlmJIk3wOyydNl8yQdtNFPDHDgIKMGp+UDquFtMHV2fQURRw+PeWGqabn/wEYswKMUReMUQXG3BqMjmspBmOowSCOQMEQJuKgOWPA0HQIV5JYDH4350oOZjEwmh1HxZVswdJ0nJHAwg8JGMyB6MxEFJ0zjHGKIqIWaJjFG4YZuUPqo2Bc1BLMmvE3RBRizehz4UTXGfTMI6MSUS75XJAPugcnTFmQERfR3XQR2t84mayIhjg4KUJ61MYU/sKmjX/mRRAXwBnhmQVdjxMZLZiCQUAA4Iwli2a1BGDUXzThC4tF0yxYNM3vkgD+u+KMbuhcAqBlUGk2pPHCrsjH1mYyZjRgHEZuVvLl3IFVmkoAOpcA1D1DJQAYPVkwiiJsmMHgCyzLAsrGFB6QvocIC8YwUCQfpmDY+zhf4KcoByg3XcTHy7lPJnIQWB5ktFJFSC3wbihsQ2F4t5WqRRcNAypbRHMDlKi4gRKIIB6m7DSlyudjCoQfktHnGVERXG2gz+MlSqvVark8jXGjkQySK+Lxd7v83ZlapPrswiIK1kwERoszTbZopPKxdYbJgQGXA109SBJnulytzx4eHm9u/jz9eZrNZkdHN4+/JmfP69WplWipIjJr1gVrZrKvqEVuGJdpZda8bwlA809Xzw/nj0+zbjfs90NIiESpj/7ZnSFQD+slytqWBLAlGEQsJxcIBkVwcHDQZX/IX10Ca/Z0cxYngQKMtaNsppaazYzULPJJUrPOBF8sNXvJ8tcMgECjSxPKM7s4TfjWKSUCl0vNhpCaPV5EkgAYM2Bcw+cMyed8xuP5Ak3Bw1ANyz+kO+SeyPaM+AcG9At9Lcak0FxDFLAmXxeskHFPaI4uKFGECA2kYblF01AumnSnyaW/tASA5md88zMsbLwCDP7TC2O7UgIQq1nFotlYnLHUEoBlrbu96sGVTQfhz3VgfYdCQyEBKMUZRc9Y1qQXqj9+ac8g+P1JYFX0TAkYM9MzLgVj8S9u0Z7BA5JyDkSRYYaHK82HKQLGCs763cL2loJBnfkckFrwBDBsAgHXB5Sus1oC/DNvGHxlJDXjaUa/Mm6iC8lGqZCy7TSZpfxl2C1rbymYcLbyXcW7Vc+yVDajWgJIbZvKJABE6o521G86W2QufRN7/N2wOSNdLzZnOt2caXzXKAsN9l4lAG3586D045f/2A3PAuufUWhof/oV7S3/MTxaBnsD01QC8NN6M2sQ7jDIMIPuT9Doaag38/i6b8sSQNGML+UMLs/oOuuw8uOX/oi6Zu7Tl9vpql0FJWXMNoztNPkHsZiaEUnoklqT6ZpT+cjnmqTA4E/dEMxBb6lldM0m0zWzWmAQsJ2mKRRBJlMEQcN21gFoFyFf+rH8iP9qKAv0zgbfbNKoK85oT1y2DGcX6+V8dT4Lu016BnHn6Z5NGnz4SNs/U/B0kg+NPGbSMNn274gNs/BplXggP9+EzcDM4kqThtjKFpk0EAAyf8CwwClbQYlfyUNO+Ue0Z8LZMiEZ/dNZ2ARMN5z7Ui12uj43XV9xw9wtTBpp1myYM8Zhnx3yuUwzWfebTJuD8FTfhjXv3aRhzWekZ8KjU6gaFjGnm502pf8IT61/QgLgYPoXc2EF0P60B6bUCqBxZXsdQVOf02HWf5wLxoH4dbNhxsBgDpO1AghBU5cbZipUTSlzJjEgqqyUdpoS5kypZ3xuXmzaM/Oc0VRQfobK2kI55SskAGFtlgQ0LgEwOwv/XAPKucKjGKtMyOdK+k242UFYyJolCaCcNW8hASgWTQbm4OdaDOTJNmD+AQkAgWFjf4U2JgBm2WDCwJzZKxiFU4MkAXDbHOTLODXwnkGr5sq0PF+brmbNJICSYdZQAuAzOe3UQCYW91AICp0a4pmQzbqPz+vV+rybVdVUg5GdGvzAS/EkTomGEVOAHcgNCzz0sakiEZQiRJEIRhMwOXpcZyjlYwpHUNFYjDUT/ozmSq+xRgCx5sAC2yRXnmo2MwVpVHkKRlPWMNCE0iKgO4KMxL6dN51zk0bKDq4wnfNFc/v9TGbRZOuMbDpnJo3Uaq4rFs09SQDb7zT3KQHs5tSQHmbbpSIwhlUM5jucGsw99UwgpGa1U4Ofc2ow804NfNOlkAD45syk2cskgJ3AFEsARl0JwNiTBFBrKDWQAIy/5tQwqDdnDkp2awKMm+CEa04YtR+3RqNUAhAm4LMJSmc4TSaMFNQZpY7qDDN9cYnTNUqXhLo8ebkbOwCmdJgRHbXr+D5zaoBFFS9LIGSDuwEiwO4WeDxf4MAqDSsZ/hk+IcAiXxOwYoK4MlAqpePIgyEeCtPXKJ86v18XyYCsl7xhRBaAlRO3ocSpIeM7YPNfXZWTgcpDQfhBUA8F/6ZkZuH9DLx78GPUyacoGl0v/o5TQ6YI5bNeec+wdUYJBsO5/THW2ndqKHBr3A0MgjN6H7fr1FAOpmyYVYLpRJ23cVOTRlBt0ihyapD9ekURUo1R1TN0CBeDQXDexlVODarFEKyfsLpQ06kQmPBsAypglAYUwQHzk7wQz08yXfD8rORm5AvHJyVgOtFJZgGETrF5s+s5NcCOYTAYTONTnGKcCqk5puZZaloNxqwC04k2WsmiWc+pwTXnq+fzP91+b4dUJvPUBjNKakkAJU4N8eph1uv1+90qM+yugmYlmE70WsupgTsrBFbaqSFeX3T7ZUNkT2DAq6cKTCdKUk4NunBqAL+LUkuC768eu7sY+eslJAG4UN+gEszlVG3NKHdqIIxsMutv2RnNeoaZNMpYM6TRvRBN6Oa0pgTgXHTDbdvfEEzlosnSSbydScO5qfRWaB/MVTmYIqcGp0wC2fOcqT3Motu7jASQd2rgFkPXZQZD5zys1lTsjZv5wH+mVQwApddpsU2z0KnhubtT+xuCITJWJWtGXfM74MIfiGV1TBrxU1uDrL4EAGAON3FjhcYkbL1n6oEZvVSByVnOlk/hbu1vAqZLh5lRA0yncx0LhYaZ1ptRdyE8fyjleogNTL5/3RcpPIiB87jT12ow0RtqqWfTVrtSswucGvTTp13FsSY9E96YVAp5re6Y6GqjUTtrPaeGYFXscP0NYHqTgC6alzXAHC4aSQCB8dBvE0y4Cmgb3qNqMJ1PrVihYQpBkw6zYN7a4o9T/2aukzGTfFWDgU0NDDOmapKGmcKpwT09aHOYhWuXtGGwuaoD5n2sdmqwuUmDsWbMpLFzb3tg+jcx/cLxRw3OjGSAodFEAjjrtTfIwtnKoRPZqjFlMAe4s+pLAPrgJty5M+r2TLc7sehntu7qjDK0QXspB5MyaRjTWXtgwgeD6YCsjzpQUNdwMDWcGrx5Iz++ncZY+GDZzHViWIeXYTAfsn9VKlJDyqmBnPRY93bvjDo9cxCG6wG2tupw8vSzXscg3kyLSE4NWqFTw6QdMN3eEZn7oG+0x4f1OqYTXSYNnBqynrzfA6bffTgNOBjdvqyJBWvQG5g0Dr53/QcJ5mf/16kViHOa8SKqDeZr3ECh0duyMw6gmVWpH/Z6vT/rqWew7S/eCN/XxoJWzXGRScMBF6Ig4Ocvg/nPmmw1/Q9yOLZ7VJVuzs9WRpIE1DsJ1YworVMbC9oEDGmkBh0Vtol/FT7RLuIBsJ2mYa1+bsGZ0cg8On8+pXZnh1ugtTQFtmgNH/6R4gHYmlNvueRgDLXiPG+f8da9pj2DJtnsfKUlXpCflapIDemwE8Zg/LsBFglMtUnDmzQGE84e8BEYS+VqVACG9QwusmmEpaRnXOZ2p5OoJYGV/GooZobhI14vqKOeDVNBrGTcUc8xuEefzihwOnypu8AwMF9DHQpTkwaEZ4H6MpKMa/vOr2Y9E4ZnsSM8OoU3t5vZKqUp8rM/GF7fNsMCGxpXuZ9RmDSagenPVqmwC67SqUH43MhBdOJ4/HpVnyczMNdJ/XOajcD0Z0utxA8gF94ITo8DmGkcD6+vRk2hYNksqS8BNJkzIe6XNBg9juMBfjjA1uYpp2IGgVDa4vLqttO4WzCYzwYmjQY9E3ZXzHeGKdztu4/rr+OqdDsadbZCQsEUmDRyU9U5rw2m2107qaMT9uJL4WSlSlvBoGkxVYfEU+iaG7Dm8IGdooJJcv+x7cdukqLbO246rzqnaSR1F82DEOtVeKym8WdTHrslmKv6Co0GEgBMfgZm89ZCrwCYt2E5GFlvFqxrSs3hDfGchmG2OG4JC1pmlCYNDADbBIhZwKaUvawrNUOMBRvOSrc0xADMyYAd26bGDGbXUEkA03o9E95o3K1x0SKWW7AC1HZrrHf4rb/SmCfguD0snegY7DO1dQBHdXQAB6FwazxuDwuoM0pMGmbWpHHTr9Ez/QsaqcHRfrSIBcnMuLFFJg3XY37N+KgTdnk+q6M3663w4u/isHJtYumMPgbgzezymLXYtllo0tCXdUSAn3Mi1GvT61Y75nARpzxaK0waVhyWH6qAP12PHTloEQrWMyWNTmnog6NqK0B4lNAN/aLVUda5njY4pYHYwOC8Xw3mT0JPT9dWq+4jRbebadk5Te7RyCn/uXrS9C8cUmLw1SKWTue3yyM1+PlIDSLgGzunqQWr6p7pn2s06Fybi0wneomxMpOaNHj4ORKnTmnSCE5nldZmBIYumg0VRbthObaantMM5jeVrjN/Ccyd1fSURmA89/7JnoneY0MFhksABj9KAufkqO9M918EEx3HiiMnOj87qAkNh4iQomlxpb9J/yIhJza11sBEt9iG4GTOtFS7NTpn/aqeuWCLZltgosPhluc0l7MKT8C2wUSdq7t4y3OaU1kIKABDJYBWwESj96FV75wmOdXIKR+tP+vKOeNDRsdpAUwUXb3cT0l99Oykw041SgA06fylJZ3T9LDLWQU3o+cmvx1MFB1/DAe4zQHD4XBEDkfkF0QEwn22FlE9ilkzVit8JxisyB1dvwxZPACDHR9pek7zojSAXM11pqbmuUghffz+uRnzYKrbn9N04tKD/vXAIHY6xmmIUzmVcAoeJujv+8Bx9hJ4CvGLVV8V3CMFxqwYZtGhzXikYXBKXD8hhbihy7mIcMpjnItwU+kIp8ypQYrU4PC4KMypgd7yYCWTkvMziDVbcDFEqZ4JgTGxuwG5fiKgEfI1i5tqPR4VxjWCwCB7EZzRdXjMfYeHjyEN04OAOzVYzKkBTp1zpwYjc04zMIzkIiyUauotmhgMGwWFpvOySw700uDTlU4N8jnNYAIR5LaXABiYjB+AoTg8vcdYTepzmrqzfgrV/loYTLUEUACmume2DT4tzxk4pynioqMK48lRv59n0jBnyP0rFWD4rpY6NTg5pwbJQ8FOBWwnkZREjCNlwHYBAEsAXlajiQQGFtrJ89xgdXZx0MNHaFPp54VDMrrlYAaQpjipqCmhyiJbKSPPuTw4lQhYVRypgXNANLjj5er54eHi8fH8F0rnjzidr+tIANHoB6QTnEqoezn4tPCDUF0/IUkAjc5pSvPTcc35fB7jDzmdE6reTnNUJ0XDb4zVpGA24FsLpR3uZVtr20zs5Ph/JXLL3sCojwOLsLNVMc73IGhGQ2mY8f17VYzzvASgmnfC6chVUJn5mewDzFiOdKfygcryA6XbFHdqUAaekm7uKgw8tY+dZjQujglYM/CUsZfAU3sDY+xLAigHo+8fTLoM6Zl9gZEtZ1wuN0V8M+ZBxOMOw6GhbfVmiLONUr5ABAxTgvm8PkeOcGqKGOdFerOiSA1uYUAEqQRkbAwm+vpcLBavkrk9GuZiX0vRpjOUKkh2WaSGJrGamrPmjyF+TSId/YmGLPh09QVU2+kA2NyvCm/U1Pf1w4I9p+PdHwsw7UoA+wITvRsW3TbHd+y83DdLALWDTxtNe+bOYjoAI2Y7bjTMSq6gTEsA5cGnXS8ffJp7DIDLEKfo3bauWJZdt5kSMDreoClLthfu9ISDcVkbcH20Ftf1BOWSIqnmQEapYcpzmow1mznWbHLWbGzHmvFxEbTTNEkU+U8GZk+suWUJgJwZZzqAHzKYliSAfYozo4UE5ivVM3tTaFRdP8EkAIMLmsZ2gib2fddAfvS1Dedm1YJmYdDB3PUTNg/Qgilp8S+/fgKeDZr5AUSjzylhNdPkjT8dy2KHrajPTS/+avkk49RADofga7jonXrkvi4cfNpI5aNqRt3S47eSpqvQ3H4QR/rxu3g4pFoWuHsse3MfV2uCJtSSnBpS5zSdyhDHFcGn0UiNm/rORKOrxXi8uTwWj0b3Ffc2txR8Gp9JbAYGB/m8vR1Ju4DoUAHmG8SZTM9oeTCWVucQfw6P/AWiN0PdMzz4NBc0dcmpQfQMlwD4pbTi5kdxvSRoD6Ura5U3RL7tutWMTrhXD6/F5rdPitsu4RxYIC75tdNF8k4NzSWA+G5nMButPQmgdNvsWPGOWoDoGIs4/4QEgMDs2DX4SPyeJYBc8Oma10+gjWC92BeFWG43ZCLveP0EdWrwuVMDoYiuLXP/NPciEPl40OZhs1OjaSyjD1/Uwt6Yu3+6MCC0FGuanNF2yV3c7PpuElOaMA16FNpR5fN5xs3Wvo1R9J648G5gTeRrATeDkLapWphTA24Yp0RhWGf4DlJXKDR0LtSl8mWDT99tyQQiiFRgsF3sVjdq6/sOPu3dbdU3UXTp/LUbtbUiMIF1/9X8KGzU2bBalNdPbANGCJA08BTrTccTJtB0Png52NkZs7Hil9sGcLBTzOEnOZ2KwEgXt+v5YaaXDzMORnWQWlgOapg0hIlh4F8ejjJiVwGOqHN7+LYYDLL2CX5HjtqcmaGKTBr5nWaQ2mka2Xxc/yN7g8T6xxuc8S0CBGay0e3V1+XL/SBdyz9h0nDEQEZUHA8Xr+9vV4cjlZPS6Pb46/3yx2JoxXGQdWr4F0waaTBkVjqbxefJ6/X72++r49vD4+Or319v75eXJx8vd1gMy3hoiLAL+zdplEnNKpOGxY8Dw22P8HJvHseGl4w3m80dTpvxONFM1G/UQ4MXUYUr3dWkwSeRm75OL2totPOUm36WZRfEgcFNz9QMh1Hxmqw5M3O7n6uoz66WAJQ7TcX1E3QU4FmpCG4gC7I60zWnOIxKAqA7zSoJQN+zBFB1YwOfawGP1AAR4R0+cf4Nk0YpmFzYidpg9O1MGnz4GDobZlxvUAFGSACC2ZiqnuHOedVgRGfSYaarwAhVkyGByWgFFTpD28/fbSvZNCtuuc0UIfM6VcTPZJRew0+OkYxe+udsxq1NGoI16yrWLI61cgoYsmDN+jew5j1LAPmQI9VujblbPv6mQmNPYNo3aaR9ZzQyuGS3YzbMuKGRUxq3hTKThrajoJkzadg84oHLSemZSHYBlXtup14oKF/xglwlNvmvMtkuzyiy4w6yDBJ6kvQutVSI+zQNW5NNGho3aeCxJhk3LOrcbcC9HdgL1OChtCAjcWjFb9RYEd3nMbfSJg0psJfDa9Es1jAarbJO6MlixfkOi2btdaaeSSOlOG/5AqpWxJn/AUzsV6uUS132AAAAAElFTkSuQmCC;" vertex="1" parent="1">
          <mxGeometry x="1320.5500000000002" y="740" width="108.91" height="102.5" as="geometry" />
        </mxCell>
        <mxCell id="FK8ZPzGPm2gjukNe_fy_-11" value="Python REST API for model inference using FastAPI and scikit-learn" style="text;html=1;align=center;verticalAlign=middle;whiteSpace=wrap;rounded=0;" vertex="1" parent="1">
          <mxGeometry x="1300" y="865" width="145" height="15" as="geometry" />
        </mxCell>
        <mxCell id="FK8ZPzGPm2gjukNe_fy_-12" value="AWS EC2 Instance" style="text;html=1;align=center;verticalAlign=middle;whiteSpace=wrap;rounded=0;" vertex="1" parent="1">
          <mxGeometry x="1240" y="613.75" width="60" height="32.5" as="geometry" />
        </mxCell>
        <mxCell id="FK8ZPzGPm2gjukNe_fy_-18" value="" style="endArrow=classic;html=1;rounded=0;entryX=0.001;entryY=0.287;entryDx=0;entryDy=0;entryPerimeter=0;flowAnimation=1;" edge="1" parent="1">
          <mxGeometry width="50" height="50" relative="1" as="geometry">
            <mxPoint x="969.71" y="740" as="sourcePoint" />
            <mxPoint x="1230" y="740.27" as="targetPoint" />
          </mxGeometry>
        </mxCell>
        <mxCell id="FK8ZPzGPm2gjukNe_fy_-19" value="" style="endArrow=classic;html=1;rounded=1;jumpSize=6;edgeStyle=orthogonalEdgeStyle;curved=0;flowAnimation=1;" edge="1" parent="1">
          <mxGeometry width="50" height="50" relative="1" as="geometry">
            <mxPoint x="1230.29" y="765" as="sourcePoint" />
            <mxPoint x="950" y="822" as="targetPoint" />
            <Array as="points">
              <mxPoint x="1230" y="766" />
              <mxPoint x="1010" y="766" />
              <mxPoint x="1010" y="822" />
            </Array>
          </mxGeometry>
        </mxCell>
        <mxCell id="FK8ZPzGPm2gjukNe_fy_-20" value="&lt;b&gt;&lt;font style=&quot;font-size: 14px;&quot;&gt;(1)&lt;/font&gt;&lt;/b&gt;: POST to &#39;/predict&#39; endpoint with input payload" style="text;html=1;align=center;verticalAlign=middle;whiteSpace=wrap;rounded=0;" vertex="1" parent="1">
          <mxGeometry x="1005" y="705" width="160" height="30" as="geometry" />
        </mxCell>
        <mxCell id="FK8ZPzGPm2gjukNe_fy_-21" value="&lt;b&gt;&lt;font style=&quot;font-size: 14px;&quot;&gt;(2)&lt;/font&gt;&lt;/b&gt;: Predicted Price as response" style="text;html=1;align=center;verticalAlign=middle;whiteSpace=wrap;rounded=0;" vertex="1" parent="1">
          <mxGeometry x="1035" y="770" width="100" height="30" as="geometry" />
        </mxCell>
        <mxCell id="FK8ZPzGPm2gjukNe_fy_-22" value="" style="endArrow=classic;html=1;rounded=0;exitX=1;exitY=0.75;exitDx=0;exitDy=0;flowAnimation=1;" edge="1" parent="1">
          <mxGeometry width="50" height="50" relative="1" as="geometry">
            <mxPoint x="970" y="860" as="sourcePoint" />
            <mxPoint x="1230" y="860" as="targetPoint" />
          </mxGeometry>
        </mxCell>
        <mxCell id="FK8ZPzGPm2gjukNe_fy_-23" value="&lt;b&gt;&lt;font style=&quot;font-size: 14px;&quot;&gt;(3)&lt;/font&gt;&lt;/b&gt;: POST to &#39;/recommend&#39; endpoint with input payload" style="text;html=1;align=center;verticalAlign=middle;whiteSpace=wrap;rounded=0;" vertex="1" parent="1">
          <mxGeometry x="1010" y="827" width="165" height="30" as="geometry" />
        </mxCell>
        <mxCell id="FK8ZPzGPm2gjukNe_fy_-24" value="" style="endArrow=classic;html=1;rounded=0;entryX=0.997;entryY=0.69;entryDx=0;entryDy=0;entryPerimeter=0;flowAnimation=1;" edge="1" parent="1" target="9tiRhB4PVM25RhnuYTAQ-42">
          <mxGeometry width="50" height="50" relative="1" as="geometry">
            <mxPoint x="1230" y="888" as="sourcePoint" />
            <mxPoint x="1125" y="775" as="targetPoint" />
          </mxGeometry>
        </mxCell>
        <mxCell id="FK8ZPzGPm2gjukNe_fy_-25" value="&lt;b&gt;&lt;font style=&quot;font-size: 14px;&quot;&gt;(4)&lt;/font&gt;&lt;/b&gt;: Recommended properties&#39; metadata as recommendations" style="text;html=1;align=center;verticalAlign=middle;whiteSpace=wrap;rounded=0;" vertex="1" parent="1">
          <mxGeometry x="998" y="895" width="170" height="30" as="geometry" />
        </mxCell>
        <mxCell id="FK8ZPzGPm2gjukNe_fy_-26" value="" style="rounded=0;whiteSpace=wrap;html=1;fillColor=none;strokeColor=light-dark(#ffffff, #ededed);" vertex="1" parent="1">
          <mxGeometry x="560" y="579" width="1015" height="391" as="geometry" />
        </mxCell>
        <mxCell id="FK8ZPzGPm2gjukNe_fy_-27" value="Docker Container" style="text;html=1;align=center;verticalAlign=middle;whiteSpace=wrap;rounded=0;" vertex="1" parent="1">
          <mxGeometry x="1265" y="672" width="60" height="30" as="geometry" />
        </mxCell>
      </root>
    </mxGraphModel>
  </diagram>
</mxfile>
